<?xml version="1.0" standalone="no"?>
<!DOCTYPE svg PUBLIC "-//W3C//DTD SVG 20010904//EN"
 "http://www.w3.org/TR/2001/REC-SVG-20010904/DTD/svg10.dtd">
<svg version="1.0" xmlns="http://www.w3.org/2000/svg"
 width="225.000000pt" height="225.000000pt" viewBox="0 0 225.000000 225.000000"
 preserveAspectRatio="xMidYMid meet">

<g transform="translate(0.000000,225.000000) scale(0.100000,-0.100000)"
fill="white" stroke="none">
<path d="M0 1125 l0 -1125 1125 0 1125 0 0 1125 0 1125 -1125 0 -1125 0 0
-1125z m811 369 c79 -23 176 -77 238 -132 l54 -47 -47 -73 c-26 -39 -50 -72
-54 -72 -4 0 -29 23 -56 50 -89 91 -231 140 -321 110 -94 -31 -164 -141 -151
-236 23 -171 181 -246 349 -167 93 44 168 122 248 257 101 171 237 279 398
316 223 52 441 -94 481 -321 36 -207 -105 -407 -318 -450 -82 -17 -181 -1
-277 46 -70 34 -195 127 -195 146 0 5 21 41 47 80 l47 70 55 -55 c61 -60 131
-100 208 -117 68 -16 145 7 197 57 50 49 66 89 66 167 0 52 -5 71 -29 109 -70
110 -185 136 -322 71 -95 -45 -137 -87 -243 -247 -107 -161 -169 -224 -270
-274 -143 -71 -264 -78 -381 -23 -295 137 -315 529 -37 697 89 54 208 69 313
38z"/>
</g>
</svg>
