<?xml version="1.0" standalone="no"?>
<!DOCTYPE svg PUBLIC "-//W3C//DTD SVG 20010904//EN"
 "http://www.w3.org/TR/2001/REC-SVG-20010904/DTD/svg10.dtd">
<svg version="1.0" xmlns="http://www.w3.org/2000/svg"
 width="225.000000pt" height="225.000000pt" viewBox="0 0 225.000000 225.000000"
 preserveAspectRatio="xMidYMid meet">

<g transform="translate(0.000000,225.000000) scale(0.100000,-0.100000)"
fill="#000000" stroke="none">
<path d="M485 1647 c-156 -40 -290 -147 -358 -287 -140 -285 -3 -625 298 -740
47 -18 81 -23 160 -24 95 -1 103 1 170 34 49 24 99 63 168 129 54 52 107 108
119 124 l20 28 -37 54 c-54 79 -61 83 -87 49 -12 -16 -63 -71 -114 -122 -113
-113 -178 -148 -256 -138 -89 12 -155 44 -217 105 -66 65 -98 125 -114 215
-21 125 38 265 148 348 100 75 233 95 315 46 74 -43 193 -171 358 -387 236
-308 363 -430 492 -476 86 -30 225 -13 340 42 83 40 192 153 235 244 151 319
-32 685 -378 755 -160 33 -270 -10 -427 -165 -54 -53 -105 -108 -115 -123 -17
-27 -17 -28 31 -93 l48 -65 30 38 c59 75 202 210 246 232 160 83 395 -56 446
-263 31 -126 -6 -249 -107 -348 -63 -63 -131 -94 -223 -105 -119 -14 -220 71
-474 399 -252 326 -335 411 -458 471 -68 33 -180 43 -259 23z m255 -60 c94
-44 223 -178 427 -442 191 -247 321 -381 396 -410 106 -40 269 6 366 103 217
217 125 584 -171 673 -140 43 -214 14 -370 -143 l-106 -107 -27 34 -26 35 20
29 c41 57 201 200 253 225 111 54 228 52 353 -8 179 -85 285 -251 286 -446 1
-151 -34 -241 -138 -350 -83 -88 -172 -135 -288 -152 -68 -9 -88 -9 -136 5
-130 38 -259 161 -489 462 -154 203 -319 379 -385 411 -30 14 -61 19 -121 19
-71 -1 -89 -5 -150 -35 -86 -42 -153 -109 -196 -197 -31 -63 -33 -75 -33 -168
0 -92 3 -106 32 -167 63 -133 193 -226 332 -236 101 -7 158 24 293 159 l106
108 27 -39 27 -39 -54 -60 c-112 -124 -221 -201 -308 -220 -122 -26 -282 25
-389 125 -115 106 -162 214 -162 369 0 154 47 263 161 369 140 129 321 165
470 93z"/>
</g>
</svg>
